<svg xmlns="http://www.w3.org/2000/svg" width="1024" height="1024" viewBox="0 0 1024 1024"><defs><radialGradient id="f" cx="50%" cy="40%" r="75%"><stop offset="0" stop-color="#34312C"/><stop offset=".6" stop-color="#232323"/><stop offset="1" stop-color="#141414"/></radialGradient></defs><rect width="1024" height="1024" fill="url(#f)"/><defs>
      <radialGradient id="ib" cx="38%" cy="32%" r="78%"><stop offset="0" stop-color="#EBC967"/><stop offset=".5" stop-color="#C99A2C"/><stop offset="1" stop-color="#8A6512"/></radialGradient>
      <radialGradient id="is" cx="50%" cy="50%" r="50%"><stop offset=".86" stop-color="#000" stop-opacity="0"/><stop offset="1" stop-color="#000" stop-opacity=".28"/></radialGradient>
      <filter id="if" x="0" y="0" width="100%" height="100%"><feTurbulence type="fractalNoise" baseFrequency="0.807" numOctaves="2" seed="7"/><feColorMatrix values="0 0 0 0 0.35  0 0 0 0 0.25  0 0 0 0 0.05  0 0 0 0.9 0"/><feComposite in2="SourceGraphic" operator="in"/></filter>
    </defs>
    <circle cx="512" cy="523.1515151515151" r="374.6909090909091" fill="#000" opacity=".35"/>
    <circle cx="512" cy="512" r="368" fill="url(#ib)"/>
    <circle cx="512" cy="512" r="368" fill="url(#is)"/>
    <circle cx="512" cy="512" r="368" fill="#fff" filter="url(#if)" opacity=".22"/>
    <circle cx="512" cy="512" r="362.42424242424244" fill="none" stroke="#DAAF48" stroke-opacity=".55" stroke-width="5.575757575757576"/>
    <path d="M 713.6 342.8 A 263.1757575757576 263.1757575757576 0 1 0 775.2 512 L 572.2 512" fill="none" stroke="#5A420C" stroke-opacity=".35" stroke-width="64.67878787878789" stroke-linecap="round" stroke-linejoin="round" transform="translate(4.460606060606061 7.806060606060607)"/>
    <path d="M 713.6 342.8 A 263.1757575757576 263.1757575757576 0 1 0 775.2 512 L 572.2 512" fill="none" stroke="#FBF7EE" stroke-width="64.67878787878789" stroke-linecap="round" stroke-linejoin="round"/>
    <path d="M 619.0545454545454 404.94545454545454 L 846.5454545454545 415.1156363636363 L 846.5454545454545 421.5389090909091 L 619.0545454545454 431.7090909090909 A 13.381818181818183 13.381818181818183 0 0 1 619.0545454545454 404.94545454545454 Z" fill="#FBF7EE" opacity=".92"/>
    <path d="M 679.2727272727273 459.030303030303 L 866.6181818181818 465.38666666666666 L 866.6181818181818 469.4012121212121 L 679.2727272727273 475.75757575757575 A 8.363636363636363 8.363636363636363 0 0 1 679.2727272727273 459.030303030303 Z" fill="#FBF7EE" opacity=".62"/></svg>